<?xml version="1.0" encoding="UTF-8" standalone="no"?>
<!-- Created with Inkscape (http://www.inkscape.org/) -->

<svg
   xmlns:dc="http://purl.org/dc/elements/1.1/"
   xmlns:cc="http://creativecommons.org/ns#"
   xmlns:rdf="http://www.w3.org/1999/02/22-rdf-syntax-ns#"
   xmlns:svg="http://www.w3.org/2000/svg"
   xmlns="http://www.w3.org/2000/svg"
   xmlns:sodipodi="http://sodipodi.sourceforge.net/DTD/sodipodi-0.dtd"
   xmlns:inkscape="http://www.inkscape.org/namespaces/inkscape"
   width="64"
   height="64"
   viewBox="0 0 64.000001 64.000001"
   id="svg4155"
   version="1.1"
   inkscape:version="0.91 r13725"
   sodipodi:docname="tijolos.svg"
   inkscape:export-filename="C:\Users\Larissa\Downloads\C.E.S\Programação Hipermídia\Sokoban\Tiles\tijolos.png"
   inkscape:export-xdpi="90"
   inkscape:export-ydpi="90">
  <defs
     id="defs4157">
    <inkscape:perspective
       sodipodi:type="inkscape:persp3d"
       inkscape:vp_x="22 : 32.375 : 1"
       inkscape:vp_y="0 : 1000 : 0"
       inkscape:vp_z="71.375001 : 36.9375 : 1"
       inkscape:persp3d-origin="32 : 21.333334 : 1"
       id="perspective4707" />
  </defs>
  <sodipodi:namedview
     id="base"
     pagecolor="#ffffff"
     bordercolor="#666666"
     borderopacity="1.0"
     inkscape:pageopacity="0.0"
     inkscape:pageshadow="2"
     inkscape:zoom="8"
     inkscape:cx="14.832036"
     inkscape:cy="36.087491"
     inkscape:document-units="px"
     inkscape:current-layer="layer1"
     showgrid="false"
     units="px"
     inkscape:window-width="1366"
     inkscape:window-height="706"
     inkscape:window-x="-8"
     inkscape:window-y="-8"
     inkscape:window-maximized="1" />
  <metadata
     id="metadata4160">
    <rdf:RDF>
      <cc:Work
         rdf:about="">
        <dc:format>image/svg+xml</dc:format>
        <dc:type
           rdf:resource="http://purl.org/dc/dcmitype/StillImage" />
        <dc:title></dc:title>
      </cc:Work>
    </rdf:RDF>
  </metadata>
  <g
     inkscape:label="Camada 1"
     inkscape:groupmode="layer"
     id="layer1"
     transform="translate(0,-988.36216)">
    <rect
       style="fill:#666666;fill-opacity:1;stroke:#000000;stroke-width:1.16843081;stroke-linecap:round;stroke-miterlimit:4;stroke-dasharray:none;stroke-opacity:1"
       id="rect4705"
       width="63.08157"
       height="63.08157"
       x="0.5842154"
       y="988.94641" />
    <rect
       style="fill:#666666;fill-opacity:1;stroke:#000000;stroke-width:1;stroke-linecap:round;stroke-miterlimit:4;stroke-dasharray:none;stroke-opacity:1"
       id="rect4723"
       width="18.375"
       height="13"
       x="0.375"
       y="988.11218"
       ry="3.5" />
    <rect
       style="fill:#666666;fill-opacity:1;stroke:#000000;stroke-width:1;stroke-linecap:round;stroke-miterlimit:4;stroke-dasharray:none;stroke-opacity:1"
       id="rect4723-9"
       width="18.375"
       height="13"
       x="18.104012"
       y="987.96039"
       ry="3.5" />
    <rect
       style="fill:#666666;fill-opacity:1;stroke:#000000;stroke-width:1.00318623;stroke-linecap:round;stroke-miterlimit:4;stroke-dasharray:none;stroke-opacity:1"
       id="rect4723-4"
       width="18.496815"
       height="12.996814"
       x="36.439095"
       y="987.73877"
       ry="3.4991422" />
    <rect
       style="fill:#666666;fill-opacity:1;stroke:#000000;stroke-width:0.72290075;stroke-linecap:round;stroke-miterlimit:4;stroke-dasharray:none;stroke-opacity:1"
       id="rect4723-7"
       width="9.4020996"
       height="13.2771"
       x="54.42395"
       y="987.84863"
       ry="2.449585" />
    <rect
       style="fill:#d45500;fill-opacity:1;stroke:#000000;stroke-width:0.72290075;stroke-linecap:round;stroke-miterlimit:4;stroke-dasharray:none;stroke-opacity:1"
       id="rect4723-7-2"
       width="9.4020996"
       height="13.2771"
       x="0.1739502"
       y="999.84857"
       ry="2.449585" />
    <rect
       style="fill:#666666;fill-opacity:1;stroke:#000000;stroke-width:1;stroke-linecap:round;stroke-miterlimit:4;stroke-dasharray:none;stroke-opacity:1"
       id="rect4723-2"
       width="18.375"
       height="13"
       x="9.8125"
       y="1000.3622"
       ry="3.5" />
    <rect
       style="fill:#666666;fill-opacity:1;stroke:#000000;stroke-width:1;stroke-linecap:round;stroke-miterlimit:4;stroke-dasharray:none;stroke-opacity:1"
       id="rect4723-26"
       width="18.375"
       height="13"
       x="28.0625"
       y="1000.3622"
       ry="3.5" />
    <rect
       style="fill:#666666;fill-opacity:1;stroke:#000000;stroke-width:0.98390037;stroke-linecap:round;stroke-miterlimit:4;stroke-dasharray:none;stroke-opacity:1"
       id="rect4723-1"
       width="17.7661"
       height="13.0161"
       x="45.929451"
       y="1000.4791"
       ry="3.5043344" />
    <rect
       style="fill:#666666;fill-opacity:1;stroke:#000000;stroke-width:1;stroke-linecap:round;stroke-miterlimit:4;stroke-dasharray:none;stroke-opacity:1"
       id="rect4723-28"
       width="18.375"
       height="13"
       x="0.56250006"
       y="1013.1122"
       ry="3.5" />
    <rect
       style="fill:#666666;fill-opacity:1;stroke:#000000;stroke-width:1;stroke-linecap:round;stroke-miterlimit:4;stroke-dasharray:none;stroke-opacity:1"
       id="rect4723-70"
       width="18.375"
       height="13"
       x="18.6875"
       y="1013.4872"
       ry="3.5" />
    <rect
       style="fill:#666666;fill-opacity:1;stroke:#000000;stroke-width:1;stroke-linecap:round;stroke-miterlimit:4;stroke-dasharray:none;stroke-opacity:1"
       id="rect4723-90"
       width="18.375"
       height="13"
       x="36.5625"
       y="1013.6122"
       ry="3.5" />
    <rect
       style="fill:#666666;fill-opacity:1;stroke:#000000;stroke-width:0.72290075;stroke-linecap:round;stroke-miterlimit:4;stroke-dasharray:none;stroke-opacity:1"
       id="rect4723-7-2-8"
       width="9.4020996"
       height="13.2771"
       x="54.79895"
       y="1013.3486"
       ry="2.449585" />
    <rect
       style="fill:#666666;fill-opacity:1;stroke:#000000;stroke-width:0.72290075;stroke-linecap:round;stroke-miterlimit:4;stroke-dasharray:none;stroke-opacity:1"
       id="rect4723-7-2-0"
       width="9.4020996"
       height="13.2771"
       x="0.4239502"
       y="1025.9736"
       ry="2.449585" />
    <rect
       style="fill:#666666;fill-opacity:1;stroke:#000000;stroke-width:0.72290075;stroke-linecap:round;stroke-miterlimit:4;stroke-dasharray:none;stroke-opacity:1"
       id="rect4723-7-2-6"
       width="9.4020996"
       height="13.2771"
       x="54.54895"
       y="1039.2235"
       ry="2.449585" />
    <rect
       style="fill:#666666;fill-opacity:1;stroke:#000000;stroke-width:1;stroke-linecap:round;stroke-miterlimit:4;stroke-dasharray:none;stroke-opacity:1"
       id="rect4723-28-6"
       width="18.375"
       height="13"
       x="10.1875"
       y="1026.7372"
       ry="3.5" />
    <rect
       style="fill:#666666;fill-opacity:1;stroke:#000000;stroke-width:1;stroke-linecap:round;stroke-miterlimit:4;stroke-dasharray:none;stroke-opacity:1"
       id="rect4723-28-5"
       width="18.375"
       height="13"
       x="28.1875"
       y="1026.4872"
       ry="3.5" />
    <rect
       style="fill:#666666;fill-opacity:1;stroke:#000000;stroke-width:0.98714316;stroke-linecap:round;stroke-miterlimit:4;stroke-dasharray:none;stroke-opacity:1"
       id="rect4723-28-8"
       width="17.887857"
       height="13.012856"
       x="46.431072"
       y="1026.3557"
       ry="3.5034614" />
    <rect
       style="fill:#666666;fill-opacity:1;stroke:#000000;stroke-width:1;stroke-linecap:round;stroke-miterlimit:4;stroke-dasharray:none;stroke-opacity:1"
       id="rect4723-28-85"
       width="18.375"
       height="13"
       x="35.8125"
       y="1039.3622"
       ry="3.5" />
    <rect
       style="fill:#666666;fill-opacity:1;stroke:#000000;stroke-width:1;stroke-linecap:round;stroke-miterlimit:4;stroke-dasharray:none;stroke-opacity:1"
       id="rect4723-28-9"
       width="18.375"
       height="13"
       x="17.1875"
       y="1039.1122"
       ry="3.5" />
    <rect
       style="fill:#666666;fill-opacity:1;stroke:#000000;stroke-width:1;stroke-linecap:round;stroke-miterlimit:4;stroke-dasharray:none;stroke-opacity:1"
       id="rect4723-28-98"
       width="18.375"
       height="13"
       x="0.3125"
       y="1039.3622"
       ry="3.5" />
    <path
       style="fill:#aa4400;fill-opacity:1;stroke:#000000;stroke-width:0.125;stroke-linecap:round;stroke-miterlimit:4;stroke-dasharray:none;stroke-opacity:1"
       d="m 19.383429,62.858233 c -0.502794,-0.250553 -0.637165,-0.375347 -0.572017,-0.53125 0.389838,-0.932905 0.43,-1.392942 0.426019,-4.879885 -0.0037,-3.281982 -0.02489,-3.630037 -0.258834,-4.261384 -0.39743,-1.072539 -0.384802,-1.124357 0.370938,-1.522103 l 0.670524,-0.352897 6.329476,0.0012 6.329476,0.0012 0.625,0.294736 c 0.744789,0.351225 1.084273,0.696854 1.426997,1.452822 0.237761,0.524446 0.255116,0.807739 0.256537,4.1875 0.0015,3.549934 -0.0046,3.637943 -0.293211,4.25 -0.351225,0.744788 -0.696854,1.084273 -1.452823,1.426996 -0.542127,0.245777 -0.791373,0.255113 -6.881707,0.257759 l -6.319207,0.0027 -0.657168,-0.327481 z"
       id="path3355"
       inkscape:connector-curvature="0"
       transform="translate(0,988.36216)" />
    <path
       style="fill:#aa4400;fill-opacity:1;stroke:#000000;stroke-width:0.125;stroke-linecap:round;stroke-miterlimit:4;stroke-dasharray:none;stroke-opacity:1"
       d="M 2.7546064,36.856328 C 2.0361608,36.498312 1.4508961,35.812489 1.2317273,35.071793 1.1470591,34.785651 1.1134822,33.306866 1.1390029,30.988052 l 0.040008,-3.635163 0.3783044,-0.611533 C 1.79151,26.362779 2.1686593,25.985713 2.5473725,25.751518 l 0.6117525,-0.378304 6.3849432,-0.0354 c 6.9696778,-0.03864 6.9687958,-0.03872 7.8318698,0.687511 0.779562,0.655959 0.782721,0.677928 0.75732,5.266465 -0.02459,4.441644 -0.03481,4.520555 -0.66112,5.104913 -0.161219,0.150421 -0.546252,0.388248 -0.855627,0.528505 -0.542127,0.245777 -0.791373,0.255113 -6.8817067,0.257759 l -6.3192069,0.0027 -0.660991,-0.329386 z"
       id="path3357"
       inkscape:connector-curvature="0"
       transform="translate(0,988.36216)" />
    <path
       style="fill:#aa4400;fill-opacity:1;stroke:#000000;stroke-width:0.125;stroke-linecap:round;stroke-miterlimit:4;stroke-dasharray:none;stroke-opacity:1"
       d="m 41.282987,37.571027 -2.396024,-0.07281 -0.536055,-0.377135 c -0.337477,-0.237427 -0.667851,-0.629421 -0.891834,-1.058173 l -0.355779,-0.681039 0.03786,-3.764469 0.03786,-3.76447 0.378305,-0.611553 c 0.234205,-0.378607 0.611325,-0.755651 0.990057,-0.989857 l 0.611752,-0.378304 6.384943,-0.0354 c 5.657003,-0.03136 6.446073,-0.01215 6.92113,0.168474 0.759231,0.288679 1.266128,0.758118 1.605455,1.486816 0.286787,0.615872 0.293382,0.712005 0.291892,4.255108 -0.0014,3.379761 -0.01878,3.663054 -0.256537,4.1875 -0.27142,0.59869 -0.643898,1.056402 -1.051997,1.292728 -0.47811,0.276868 -7.351159,0.476902 -11.771024,0.342585 z"
       id="path3359"
       inkscape:connector-curvature="0"
       transform="translate(0,988.36216)" />
    <path
       style="fill:#aa4400;fill-opacity:1;stroke:#000000;stroke-width:0.125;stroke-linecap:round;stroke-miterlimit:4;stroke-dasharray:none;stroke-opacity:1"
       d="m 43.991511,11.623102 c -0.381157,-0.113343 -1.362248,-0.170512 -3.043203,-0.177328 -2.836638,-0.0115 -2.918166,-0.03704 -3.550064,-1.111978 l -0.344233,-0.585582 0,-3.8848025 0,-3.8848025 0.378305,-0.611893 C 37.666721,0.98757465 38.04332,0.61092352 38.422377,0.37651844 L 39.034134,-0.001786 45.51333,-0.03629269 c 6.393488,-0.03405022 6.487468,-0.03094779 7.104598,0.23453443 0.343972,0.14797261 0.793743,0.46077041 0.999493,0.69510621 l 0.37409,0.42606505 0,4.5485599 0,4.5485601 -0.325982,0.387408 c -0.533331,0.633828 -0.734226,0.688708 -2.861518,0.781708 -4.573401,0.199938 -6.235363,0.209075 -6.8125,0.03745 z"
       id="path3361"
       inkscape:connector-curvature="0"
       transform="translate(0,988.36216)" />
    <path
       style="fill:#aa4400;fill-opacity:1;stroke:#000000;stroke-width:0.125;stroke-linecap:round;stroke-miterlimit:4;stroke-dasharray:none;stroke-opacity:1"
       d="m 55.973828,63.419509 c -0.250352,-0.147085 -0.573789,-0.478457 -0.71875,-0.736381 -0.255145,-0.453968 -0.263567,-0.619645 -0.263567,-5.184914 0,-4.578585 0.0077,-4.729745 0.265941,-5.18914 0.146268,-0.260248 0.38533,-0.533746 0.53125,-0.607775 0.156658,-0.07948 1.4683,-0.15737 3.202809,-0.190205 1.615625,-0.03059 3.036463,-0.06351 3.157417,-0.07317 0.333317,-0.02662 0.912052,0.440801 1.139672,0.920474 0.176065,0.371028 0.202911,1.051067 0.202911,5.139821 0,5.208786 -0.01044,5.285394 -0.796661,5.846212 -0.374158,0.26689 -0.516207,0.280148 -3.328339,0.310649 -2.806561,0.03044 -2.95779,0.01994 -3.392683,-0.235566 z"
       id="path3365"
       inkscape:connector-curvature="0"
       transform="translate(0,988.36216)" />
    <path
       style="fill:#aa4400;fill-opacity:1;stroke:#000000;stroke-width:0.125;stroke-linecap:round;stroke-miterlimit:4;stroke-dasharray:none;stroke-opacity:1"
       d="M 9.1671348,11.922413 C 9.0361668,11.777597 8.7040113,11.538535 8.4290113,11.391163 7.957459,11.138459 7.7476568,11.122464 4.7415113,11.110039 l -3.1875,-0.01318 -0.3125,-0.611825 c -0.3117117,-0.6102816 -0.3125,-0.6208116 -0.3125,-4.174325 0,-3.1498201 0.0264361,-3.6310143 0.2282123,-4.1539556 C 1.4296501,1.4507129 2.2626273,0.66886121 2.9673667,0.45771615 3.6257533,0.26045875 15.460164,0.25134502 16.166828,0.4475512 c 0.2683,0.0744936 0.734582,0.36949242 1.036183,0.6555529 l 0.548368,0.5201099 -0.127458,0.875 c -0.254921,1.7500389 -0.135175,7.1726014 0.175587,7.951248 0.04922,0.123323 -0.04389,0.348859 -0.24046,0.58247 l -0.320778,0.381223 -2.467129,0.04253 c -2.396746,0.04132 -2.487098,0.05234 -3.167089,0.38628 -0.91296,0.448355 -2.0696575,0.48654 -2.4369172,0.08045 z"
       id="path3367"
       inkscape:connector-curvature="0"
       transform="translate(0,988.36216)" />
    <path
       style="fill:#d45500;fill-opacity:1;stroke:#000000;stroke-width:0.125;stroke-linecap:round;stroke-miterlimit:4;stroke-dasharray:none;stroke-opacity:1"
       d="m 26.241511,11.769756 c -0.517813,-0.248451 -0.795862,-0.273189 -3.5,-0.311394 -3.30619,-0.04671 -3.221524,-0.02249 -3.793414,-1.085148 -0.252946,-0.4700109 -0.271624,-0.7024264 -0.31141,-3.875 -0.0276,-2.2008604 0.0067,-3.5970864 0.09871,-4.0133751 0.192123,-0.8695928 0.747498,-1.58518119 1.534744,-1.97748216 l 0.645452,-0.32164274 6.354472,0 c 7.003206,0 6.859895,-0.0146481 7.705456,0.78758516 0.857999,0.81403284 0.885179,0.97079144 0.888241,5.12267974 0.0029,4.0020201 -0.01725,4.1511731 -0.666527,4.9211291 l -0.332158,0.393895 -2.155535,0.04702 c -1.900656,0.04146 -2.227621,0.07987 -2.765174,0.324856 -0.8621,0.392896 -2.871497,0.385777 -3.702861,-0.01312 z"
       id="path3369"
       inkscape:connector-curvature="0"
       transform="translate(0,988.36216)" />
    <path
       style="fill:#d45500;fill-opacity:1;stroke:#000000;stroke-width:0.125;stroke-linecap:round;stroke-miterlimit:4;stroke-dasharray:none;stroke-opacity:1"
       d="M 61.741511,11.88613 C 61.230078,11.648207 60.90932,11.620656 58.208333,11.582647 l -2.970677,-0.0418 -0.185573,-0.358857 c -0.154459,-0.298692 -0.185572,-1.148181 -0.185572,-5.0667953 0,-4.5636841 0.0081,-4.7223708 0.264736,-5.17897169 0.145605,-0.25906849 0.481858,-0.59306295 0.747229,-0.74220991 0.462723,-0.26006472 0.601692,-0.26963191 3.391514,-0.2334857 4.367294,0.05658465 4.096521,-0.35075874 4.096521,6.1626906 0,5.147192 -0.01913,5.298212 -0.734161,5.79601 -0.319928,0.22273 -0.342748,0.221883 -0.890839,-0.03309 z"
       id="path3371"
       inkscape:connector-curvature="0"
       transform="translate(0,988.36216)" />
    <path
       style="fill:#d45500;fill-opacity:1;stroke:#000000;stroke-width:0.125;stroke-linecap:round;stroke-miterlimit:4;stroke-dasharray:none;stroke-opacity:1"
       d="M 48.396371,24.396155 C 47.726517,24.14944 47.109034,23.5692 46.792192,22.88873 c -0.292737,-0.628702 -0.298238,-0.70738 -0.298238,-4.265516 0,-3.54756 0.0063,-3.638541 0.295153,-4.258858 0.338287,-0.726488 1.00246,-1.329165 1.69269,-1.535963 0.671635,-0.201227 11.979926,-0.19909 12.652409,0.0024 0.651922,0.19532 1.402085,0.860286 1.726483,1.530403 0.25669,0.53025 0.264861,0.687686 0.229739,4.426652 l -0.03642,3.876848 -0.378491,0.538273 c -0.20817,0.29605 -0.620762,0.708593 -0.916871,0.916763 l -0.538381,0.378491 -6.208129,0.02404 c -4.574408,0.01771 -6.315402,-0.01547 -6.615768,-0.126099 z"
       id="path3373"
       inkscape:connector-curvature="0"
       transform="translate(0,988.36216)" />
    <path
       style="fill:#d45500;fill-opacity:1;stroke:#000000;stroke-width:0.125;stroke-linecap:round;stroke-miterlimit:4;stroke-dasharray:none;stroke-opacity:1"
       d="m 16.241511,50.616948 c -0.327722,-0.09387 -1.287995,-0.165314 -2.300701,-0.171174 -1.652206,-0.0096 -1.758403,-0.02547 -2.146548,-0.321522 -0.224591,-0.171304 -0.556461,-0.614194 -0.737489,-0.984202 l -0.329141,-0.67274 0.03819,-3.744697 0.03819,-3.744698 0.378305,-0.611546 c 0.234202,-0.378598 0.611331,-0.755649 0.990057,-0.989851 l 0.611752,-0.378304 6.384943,-0.0354 c 5.657003,-0.03136 6.446073,-0.01215 6.92113,0.168474 0.597746,0.227278 1.210203,0.697331 1.420446,1.090174 0.09356,0.174818 0.133511,1.478458 0.123129,4.017768 -0.0084,2.06744 0.03129,3.955857 0.08832,4.196482 0.0773,0.326148 0.04863,0.548852 -0.112645,0.875 -0.43669,0.883146 -0.292441,0.853079 -4.305535,0.897435 -3.450181,0.03813 -3.654283,0.05362 -4.234538,0.321315 -0.698226,0.322118 -1.880937,0.358707 -2.827861,0.08748 z"
       id="path3375"
       inkscape:connector-curvature="0"
       transform="translate(0,988.36216)" />
    <path
       style="fill:#d45500;fill-opacity:1;stroke:#000000;stroke-width:0.125;stroke-linecap:round;stroke-miterlimit:4;stroke-dasharray:none;stroke-opacity:1"
       d="m 48.679011,50.138536 c -0.744788,-0.351225 -1.084273,-0.696854 -1.426996,-1.452822 -0.237891,-0.524732 -0.255013,-0.805893 -0.255013,-4.1875 0,-3.381607 0.01712,-3.662768 0.255013,-4.1875 0.342723,-0.755968 0.682208,-1.101597 1.426996,-1.452822 l 0.625,-0.294736 5.985498,-0.0012 c 4.355325,-8.89e-4 6.125624,0.04039 6.5,0.151569 0.673755,0.200083 1.636786,1.154471 1.815919,1.79962 0.180338,0.649495 0.180338,7.320684 0,7.970179 -0.179133,0.645149 -1.142164,1.599537 -1.815919,1.79962 -0.374376,0.111178 -2.144675,0.152458 -6.5,0.15157 l -5.985498,-0.0012 -0.625,-0.294736 z"
       id="path3377"
       inkscape:connector-curvature="0"
       transform="translate(0,988.36216)" />
    <path
       style="fill:#c87137;fill-opacity:1;stroke:#000000;stroke-width:0.125;stroke-linecap:round;stroke-miterlimit:4;stroke-dasharray:none;stroke-opacity:1"
       d="M 2.5046064,63.106328 C 1.7861608,62.748312 1.2008961,62.062489 0.98172735,61.321793 0.8970591,61.035651 0.86348216,59.556866 0.88900291,57.238052 L 0.9290113,53.602889 1.3073157,52.991356 C 1.54151,52.612779 1.9186593,52.235713 2.2973725,52.001518 l 0.6117525,-0.378304 6.3849432,-0.0354 c 5.6570028,-0.03136 6.4460728,-0.01215 6.9211298,0.168474 0.759231,0.288679 1.266128,0.758118 1.605455,1.486816 0.286658,0.615595 0.293416,0.713602 0.293416,4.255108 0,3.548359 -0.0062,3.638214 -0.294735,4.25 -0.351225,0.744788 -0.696854,1.084273 -1.452823,1.426996 -0.542127,0.245777 -0.791373,0.255113 -6.8817067,0.257759 l -6.3192069,0.0027 -0.660991,-0.329386 z"
       id="path3381"
       inkscape:connector-curvature="0"
       transform="translate(0,988.36216)" />
    <path
       style="fill:#c87137;fill-opacity:1;stroke:#000000;stroke-width:0.125;stroke-linecap:round;stroke-miterlimit:4;stroke-dasharray:none;stroke-opacity:1"
       d="m 38.004606,63.106328 c -0.718445,-0.358016 -1.30371,-1.043839 -1.522879,-1.784535 -0.08467,-0.286142 -0.118245,-1.764927 -0.09272,-4.083741 l 0.04001,-3.635163 0.378305,-0.611533 c 0.234194,-0.378577 0.611343,-0.755643 0.990057,-0.989838 l 0.611752,-0.378304 6.384943,-0.0354 c 5.657003,-0.03136 6.446073,-0.01215 6.92113,0.168474 0.759231,0.288679 1.266128,0.758118 1.605455,1.486816 0.286658,0.615595 0.293416,0.713602 0.293416,4.255108 0,3.548359 -0.0062,3.638214 -0.294735,4.25 -0.351225,0.744788 -0.696854,1.084273 -1.452823,1.426996 -0.542127,0.245777 -0.791373,0.255113 -6.881707,0.257759 l -6.319207,0.0027 -0.660991,-0.329386 z"
       id="path3383"
       inkscape:connector-curvature="0"
       transform="translate(0,988.36216)" />
    <path
       style="fill:#c87137;fill-opacity:1;stroke:#000000;stroke-width:0.125;stroke-linecap:round;stroke-miterlimit:4;stroke-dasharray:none;stroke-opacity:1"
       d="m 33.116511,50.374203 c -0.309375,-0.0926 -1.091565,-0.172897 -1.738201,-0.178429 -1.051971,-0.009 -1.218675,-0.04284 -1.584048,-0.321522 -0.224591,-0.171304 -0.556461,-0.614194 -0.737489,-0.984202 l -0.329141,-0.67274 0.03819,-3.744697 0.03819,-3.744698 0.378305,-0.611546 c 0.234202,-0.378598 0.611331,-0.755649 0.990057,-0.989851 l 0.611752,-0.378304 6.384943,-0.0354 c 6.970771,-0.03865 6.96866,-0.03883 7.832861,0.688346 0.831694,0.699824 0.854349,0.835164 0.86979,5.196195 0.01503,4.243462 0.0048,4.319963 -0.676079,5.069272 -0.662736,0.729316 -0.69565,0.733517 -6.329129,0.807666 -4.143174,0.05453 -5.30074,0.03438 -5.75,-0.100092 z"
       id="path3385"
       inkscape:connector-curvature="0"
       transform="translate(0,988.36216)" />
    <path
       style="fill:#c87137;fill-opacity:1;stroke:#000000;stroke-width:0.125;stroke-linecap:round;stroke-miterlimit:4;stroke-dasharray:none;stroke-opacity:1"
       d="m 20.879606,37.231328 c -0.718445,-0.358016 -1.30371,-1.043839 -1.522879,-1.784535 -0.08467,-0.286142 -0.118245,-1.764927 -0.09272,-4.083741 l 0.04001,-3.635163 0.378305,-0.611533 c 0.234194,-0.378577 0.611343,-0.755643 0.990057,-0.989838 l 0.611752,-0.378304 6.384943,-0.0354 c 6.969678,-0.03864 6.968796,-0.03872 7.83187,0.687511 0.576113,0.484768 0.746081,0.90106 0.605122,1.482089 -0.06576,0.27106 -0.107085,2.266373 -0.0923,4.456656 l 0.02677,3.965857 -0.305756,0.331936 c -0.168167,0.182564 -0.587007,0.464566 -0.930757,0.626671 l -0.625,0.294736 -6.319207,0.0012 -6.319207,0.0012 -0.660991,-0.329386 z"
       id="path3387"
       inkscape:connector-curvature="0"
       transform="translate(0,988.36216)" />
    <path
       style="fill:#c87137;fill-opacity:1;stroke:#000000;stroke-width:0.125;stroke-linecap:round;stroke-miterlimit:4;stroke-dasharray:none;stroke-opacity:1"
       d="M 1.8488275,50.169509 C 1.5984765,50.022424 1.275039,49.691052 1.1300775,49.433128 0.87493319,48.97916 0.8665113,48.813483 0.8665113,44.248214 c 0,-4.571856 0.008089,-4.730355 0.2647357,-5.186995 0.1456046,-0.259068 0.4818576,-0.593063 0.7472288,-0.74221 0.4627227,-0.260065 0.6016917,-0.269632 3.3915144,-0.233486 4.3672942,0.05658 4.0965211,-0.350758 4.0965211,6.162691 0,5.208786 -0.010439,5.285394 -0.7966609,5.846212 -0.3741586,0.26689 -0.5162076,0.280148 -3.3283391,0.310649 -2.8065609,0.03044 -2.9577899,0.01994 -3.3926838,-0.235566 z"
       id="path3389"
       inkscape:connector-curvature="0"
       transform="translate(0,988.36216)" />
    <path
       style="fill:#c87137;fill-opacity:1;stroke:#000000;stroke-width:0.125;stroke-linecap:round;stroke-miterlimit:4;stroke-dasharray:none;stroke-opacity:1"
       d="m 61.679011,37.560714 c -0.20625,-0.05248 -1.55625,-0.102938 -3,-0.112125 -1.44375,-0.0092 -2.688233,-0.05803 -2.765519,-0.108539 -0.07729,-0.05051 -0.259888,-0.288711 -0.405783,-0.529336 -0.257954,-0.425444 -0.265276,-0.567922 -0.26573,-5.170481 -4.54e-4,-4.58964 0.0076,-4.747246 0.264268,-5.204014 0.145605,-0.259068 0.481858,-0.593063 0.747229,-0.74221 0.462723,-0.260065 0.601692,-0.269632 3.391514,-0.233486 4.367294,0.05659 4.096521,-0.350758 4.096521,6.162691 0,5.166779 -0.01594,5.289803 -0.753457,5.814962 -0.360322,0.256572 -0.668812,0.285449 -1.309043,0.122538 z"
       id="path3391"
       inkscape:connector-curvature="0"
       transform="translate(0,988.36216)" />
    <path
       style="fill:#c87137;fill-opacity:1;stroke:#000000;stroke-width:0.125;stroke-linecap:round;stroke-miterlimit:4;stroke-dasharray:none;stroke-opacity:1"
       d="m 30.254606,24.106328 c -0.718445,-0.358016 -1.30371,-1.043839 -1.522879,-1.784535 -0.08467,-0.286142 -0.118245,-1.764927 -0.09272,-4.083741 l 0.04001,-3.635163 0.378305,-0.611533 c 0.234194,-0.378577 0.611343,-0.755643 0.990057,-0.989838 l 0.611752,-0.378304 6.384943,-0.0354 c 6.969678,-0.03864 6.968796,-0.03872 7.83187,0.687511 0.576113,0.484768 0.746081,0.90106 0.605122,1.482089 -0.06576,0.27106 -0.107085,2.266373 -0.0923,4.456656 l 0.02677,3.965857 -0.305756,0.331936 c -0.168167,0.182564 -0.587007,0.464566 -0.930757,0.626671 l -0.625,0.294736 -6.319207,0.0012 -6.319207,0.0012 -0.660991,-0.329386 z"
       id="path3393"
       inkscape:connector-curvature="0"
       transform="translate(0,988.36216)" />
    <path
       style="fill:#c87137;fill-opacity:1;stroke:#000000;stroke-width:0.125;stroke-linecap:round;stroke-miterlimit:4;stroke-dasharray:none;stroke-opacity:1"
       d="m 16.304011,24.310714 c -0.20625,-0.05248 -1.252498,-0.102077 -2.324995,-0.110211 -1.947309,-0.01477 -1.950691,-0.01529 -2.455103,-0.380688 -0.316098,-0.22898 -0.629749,-0.620654 -0.838195,-1.046702 l -0.333086,-0.680803 0.03819,-3.744697 0.03819,-3.744698 0.378305,-0.611546 c 0.234202,-0.378598 0.611331,-0.755649 0.990057,-0.989851 l 0.611752,-0.378304 6.384943,-0.0354 c 5.657003,-0.03136 6.446073,-0.01215 6.92113,0.168474 0.701508,0.266731 1.228431,0.720526 1.535471,1.322375 0.232027,0.45481 0.248195,0.742716 0.248195,4.419549 0,3.641126 -0.01793,3.968004 -0.241511,4.404023 -0.311618,0.607692 -0.692672,0.956453 -1.390842,1.272973 -0.53319,0.241725 -0.787212,0.254386 -4.875,0.242969 -2.371875,-0.0066 -4.48125,-0.05498 -4.6875,-0.107465 z"
       id="path3395"
       inkscape:connector-curvature="0"
       transform="translate(0,988.36216)" />
    <path
       style="fill:#ffe680;fill-opacity:1;stroke:#000000;stroke-width:0.125;stroke-linecap:round;stroke-miterlimit:4;stroke-dasharray:none;stroke-opacity:1"
       d="m 28.784363,44.748214 c 4.53e-4,-0.55 0.02243,-0.759451 0.04884,-0.465446 0.02641,0.294005 0.02604,0.744005 -8.25e-4,1 -0.02686,0.255995 -0.04846,0.01545 -0.04801,-0.534554 z"
       id="path3397"
       inkscape:connector-curvature="0"
       transform="translate(0,988.36216)" />
    <path
       style="fill:#e9ddaf;fill-opacity:1;stroke:#000000;stroke-width:0.125;stroke-linecap:round;stroke-miterlimit:4;stroke-dasharray:none;stroke-opacity:1"
       d="M 2.8665113,64.31334 C 2.6946363,64.256852 2.0134197,64.205027 1.3526967,64.198174 l -1.20131468,-0.01246 -0.10170818,-1.46875 c -0.05593952,-0.807813 -0.09170344,-3.15625 -0.0794754,-5.21875 0.02135367,-3.601721 0.0310942,-28.993916 0.01510436,-39.375 -0.0042358,-2.75 -0.01097639,-7.056894 -0.01497913,-9.5708753 -0.0040027,-2.5139813 0.03406649,-5.4530438 0.08459827,-6.53125 L 0.1467979,0.060714 l 0.67651216,0 c 0.49659634,0 0.84993414,-0.09141896 1.32860674,-0.34375 l 0.6520945,-0.34375 6.75,0 6.7499997,0 0.652095,0.34375 c 0.932132,0.49137062 1.749653,0.47304262 2.787813,-0.0625 l 0.787524,-0.40625 6.511283,-0.0379606 c 6.891418,-0.0401768 7.092795,-0.0263458 7.977355,0.5478957 0.372184,0.2416155725 0.6305,0.30256491 1.282333,0.30256491 0.70918,0 0.884396,-0.0493562 1.335635,-0.37623214 1.014544,-0.73493127 1.163134,-0.74876787 8.040962,-0.74876787 6.877829,0 7.026419,0.013837 8.040963,0.74876787 0.647311,0.46891051 0.940052,0.46925551 1.629686,0.00192 0.300106,-0.20336929 0.721981,-0.40260432 0.9375,-0.44274454 0.215518,-0.0401402 1.634529,-0.0555361 3.153356,-0.034213 l 2.761505,0.0387692 0.653052,0.40625 c 0.359177,0.2234375 0.81731,0.40625 1.018071,0.40625 l 0.36502,0 0.06435,13.34375047 c 0.09482,19.661305 0.09509,22.941671 0.002,24.558047 -0.07513,1.304797 -0.05592,1.54018 0.176331,2.160939 0.242528,0.648211 0.260648,0.952575 0.260648,4.378113 0,3.378575 -0.02056,3.735573 -0.249938,4.33906 -0.239596,0.630385 -0.249939,0.960876 -0.25,7.988105 l -6.2e-5,7.330515 -1.03125,0.09013 c -0.567188,0.04957 -2.38125,0.0838 -4.03125,0.07606 -1.65,-0.0077 -4.06875,-0.01041 -5.375,-0.0059 -1.30625,0.0045 -5.271875,0.0047 -8.8125,5e-4 -20.154108,-0.02376 -29.265782,-0.01393 -35.1875005,0.03796 -3.64375,0.03193 -6.765625,0.01184 -6.9375,-0.04465 l 3.8e-6,3.2e-5 z M 62.280201,63.629167 c 0.09985,-0.09985 0.21637,-0.146727 0.258929,-0.104167 0.04256,0.04256 0.07738,0.01175 0.07738,-0.06845 0,-0.08021 0.06148,-0.131772 0.136633,-0.114584 0.07515,0.01719 0.20171,-0.08125 0.28125,-0.21875 0.07954,-0.1375 0.200867,-0.291326 0.269617,-0.341836 0.06875,-0.05051 0.07879,-0.0927 0.02232,-0.09375 -0.05647,-10e-4 -0.01429,-0.09031 0.09375,-0.198343 0.171743,-0.171744 0.196428,-0.798971 0.196428,-4.991071 0,-3.662699 -0.03689,-4.834341 -0.15625,-4.962798 -0.08594,-0.09248 -0.172412,-0.25119 -0.192166,-0.352678 -0.04746,-0.243805 -0.64064,-0.768542 -0.774954,-0.685532 -0.0579,0.03579 -0.125641,0.004 -0.15053,-0.07069 -0.03249,-0.09748 -0.383001,-0.0981 -1.243183,-0.0022 -0.698138,0.07785 -2.003585,0.100334 -3.128963,0.0539 -2.220034,-0.09161 -2.403936,-0.03463 -2.847815,0.882303 -0.244046,0.504132 -0.256139,0.747615 -0.256139,5.157485 0,4.590284 0.0024,4.632854 0.287843,5.172692 0.19674,0.372042 0.460119,0.63542 0.83216,0.832161 0.521067,0.275546 0.663239,0.287842 3.32823,0.287842 2.267354,0 2.817596,-0.03369 2.965457,-0.181548 l 0,-4e-6 z m -45.72619,-0.400756 c 0.585059,-0.3157 1.06584,-0.805363 1.39198,-1.417697 0.21294,-0.3998 0.23302,-0.771415 0.23302,-4.3125 0,-3.541085 -0.02008,-3.9127 -0.23302,-4.3125 -0.32614,-0.612334 -0.806921,-1.101998 -1.39198,-1.417698 -0.492986,-0.266018 -0.590295,-0.26995 -6.9374997,-0.280322 -3.540625,-0.0058 -5.9875,0.02609 -5.4375,0.07083 l 1,0.08135 -1.3249953,0.02292 c -1.2464667,0.02156 -1.3546981,0.04444 -1.8261682,0.38597 -0.718531,0.520502 -1.03380288,1.092162 -1.0487965,1.901707 -0.009902,0.53463 -0.0337689,0.608588 -0.11625301,0.360246 -0.0588312,-0.177129 -0.094045,1.280412 -0.08129,3.364692 0.016654,2.721412 0.0612905,3.690093 0.17173088,3.726825 0.0820753,0.0273 0.12244583,0.119428 0.0897122,0.20473 -0.15483701,0.403499 1.5658019,2.00281 1.9195403,1.784188 0.056901,-0.03517 0.1851453,-0.01114 0.2849878,0.05339 0.1086927,0.07025 2.7144039,0.104558 6.4940318,0.0855 6.1986147,-0.03125 6.3215197,-0.03669 6.8124997,-0.301628 z m 35.5,0 c 0.585059,-0.3157 1.06584,-0.805363 1.39198,-1.417697 0.21294,-0.3998 0.23302,-0.771415 0.23302,-4.3125 0,-3.541085 -0.02008,-3.9127 -0.23302,-4.3125 -0.32614,-0.612334 -0.806921,-1.101998 -1.39198,-1.417698 -0.492986,-0.266018 -0.590295,-0.26995 -6.9375,-0.280322 -3.540625,-0.0058 -5.9875,0.02609 -5.4375,0.07083 l 1,0.08135 -1.324995,0.02292 c -1.246467,0.02156 -1.354698,0.04444 -1.826168,0.38597 -0.718532,0.520502 -1.033803,1.092162 -1.048797,1.901707 -0.0099,0.53463 -0.03377,0.608588 -0.116252,0.360246 -0.05883,-0.177129 -0.09405,1.280412 -0.08129,3.364692 0.01665,2.721412 0.06129,3.690093 0.17173,3.726825 0.08208,0.0273 0.122446,0.119428 0.08971,0.20473 -0.154836,0.403499 1.565803,2.00281 1.91954,1.784188 0.0569,-0.03517 0.185147,-0.01114 0.284989,0.05339 0.108693,0.07025 2.714404,0.104558 6.494031,0.0855 6.198615,-0.03125 6.32152,-0.03669 6.8125,-0.301628 z m -18.625,-0.25 c 0.585059,-0.3157 1.06584,-0.805363 1.39198,-1.417697 0.21294,-0.3998 0.23302,-0.771415 0.23302,-4.3125 0,-3.541085 -0.02008,-3.9127 -0.23302,-4.3125 -0.44605,-0.837469 -1.174367,-1.437051 -1.95448,-1.609015 -0.325426,-0.07174 -12.60847,-0.08576 -12.9375,-0.01477 -0.103125,0.02225 -0.1875,0.09065 -0.1875,0.151996 0,0.06135 -0.0595,0.07477 -0.132215,0.02983 -0.148232,-0.09161 -1.117785,0.50502 -1.117785,0.687851 0,0.207133 0.28655,0.754108 0.395065,0.754108 0.05771,0 0.09827,0.04219 0.09013,0.09375 -0.0081,0.05156 -0.0035,0.121875 0.01041,0.15625 0.09827,0.243529 0.122894,1.130866 0.121428,4.375 -0.0019,4.296782 0.0079,4.019407 -0.149385,4.21875 -0.0678,0.08594 -0.08424,0.15625 -0.03653,0.15625 0.0477,0 -0.0017,0.08839 -0.109694,0.196429 -0.108036,0.108035 -0.196428,0.24629 -0.196428,0.30723 0,0.152683 1.092976,0.780887 1.22098,0.701776 0.0569,-0.03517 0.185146,-0.01114 0.284988,0.05339 0.108693,0.07025 2.714404,0.104558 6.494032,0.0855 6.198615,-0.03125 6.32152,-0.03669 6.8125,-0.301628 l 3e-6,0 z m 2.8125,0.138318 c 0,-0.135402 -0.564106,-1.054108 -0.647826,-1.055053 -0.04693,-5e-4 -0.118679,0.104119 -0.159441,0.232553 -0.04076,0.128432 -0.185179,0.334025 -0.320924,0.456872 -0.385919,0.349253 -0.299365,0.434613 0.440691,0.434613 0.378125,0 0.6875,-0.03104 0.6875,-0.06898 z m 18.311693,-0.149765 c -0.04953,-0.120313 -0.11836,-0.317188 -0.152953,-0.4375 -0.112062,-0.389739 -0.21402,-0.299265 -0.633896,0.5625 -0.02512,0.05156 0.161904,0.09375 0.415614,0.09375 0.390297,0 0.44743,-0.03367 0.371235,-0.21875 z m -18.344696,-10.851488 0.404496,-0.554762 -0.806979,0 -0.80698,0 0.308734,0.454944 c 0.169802,0.250218 0.308732,0.503343 0.308732,0.5625 0,0.229043 0.20374,0.06981 0.591997,-0.462682 z m 18.337702,0.03772 c 0.13321,-0.291489 0.26446,-0.572167 0.291668,-0.623729 0.02721,-0.05156 -0.327392,-0.09375 -0.787995,-0.09375 l -0.837462,0 0.452045,0.50036 c 0.248625,0.275199 0.452045,0.556449 0.452045,0.625 0,0.281619 0.202398,0.0895 0.429699,-0.407881 z M 1.5999659,50.858661 C 1.162788,50.616274 1.1165113,50.642411 1.1165113,51.131725 l 0,0.446013 0.3897046,-0.277494 0.3897045,-0.277495 -0.2959545,-0.164088 z m 61.5165451,0.07705 c 0,-0.06875 -0.05957,-0.125 -0.132377,-0.125 -0.07281,0 -0.09761,0.05625 -0.05512,0.125 0.04249,0.06875 0.10206,0.125 0.132378,0.125 0.03032,0 0.05512,-0.05625 0.05512,-0.125 z M 18.79813,50.790649 c 0.17511,-0.07979 0.318381,-0.19052 0.318381,-0.246076 0,-0.05556 0.08438,-0.06864 0.1875,-0.02906 0.103125,0.03957 0.1875,0.02174 0.1875,-0.03964 0,-0.162484 0.219909,-0.171162 4.010097,-0.158232 l 3.447596,0.01176 0.394347,-0.449138 c 0.454747,-0.517926 0.589254,-0.931931 0.459925,-1.415612 -0.114247,-0.427281 -0.115643,-0.50838 -0.07797,-4.52894 0.01707,-1.821875 0.02765,-3.380855 0.02352,-3.4644 -0.01317,-0.266151 -0.778319,-1.040684 -1.308179,-1.324214 -0.506943,-0.271269 -0.573358,-0.273984 -6.949335,-0.284041 -3.540625,-0.0056 -5.959375,0.02612 -5.375,0.07046 l 1.0625,0.08062 -1.25,0.03285 c -0.6875,0.01807 -1.346408,0.0514 -1.464241,0.07406 -0.521655,0.100353 -1.437566,1.016263 -1.537917,1.537918 -0.02267,0.117832 -0.05292,0.523616 -0.06723,0.901741 -0.02414,0.637871 -0.03281,0.655917 -0.12008,0.25 -0.05173,-0.240625 -0.08002,1.165625 -0.06287,3.125 0.0328,3.74568 0.04008,3.875 0.218048,3.875 0.06135,0 0.07615,0.05728 0.03288,0.12728 -0.114483,0.185239 0.396045,0.952302 0.878974,1.320651 0.402828,0.307251 0.474589,0.317255 2.206902,0.307656 2.193101,-0.01215 2.231712,-0.0091 2.537097,0.200324 0.305564,0.20955 1.805188,0.22558 2.247555,0.02402 z m 25.412131,-0.373711 c 0.223438,-0.06909 0.40625,-0.1775 0.40625,-0.240918 0,-0.06342 0.07385,-0.115306 0.164114,-0.115306 0.214398,0 0.753786,-0.581309 1.009116,-1.087543 0.172958,-0.342917 0.20177,-0.962355 0.20177,-4.337868 0,-3.805303 -0.06644,-4.574589 -0.395065,-4.574589 -0.05771,0 -0.104935,-0.07457 -0.104935,-0.165711 0,-0.18638 -0.622867,-0.817694 -0.628801,-0.637328 -0.0021,0.06355 -0.0618,0.01592 -0.132682,-0.10584 -0.07088,-0.121759 -0.181674,-0.188751 -0.246199,-0.148874 -0.06453,0.03988 -0.117318,0.01558 -0.117318,-0.054 0,-0.328922 -1.119323,-0.386205 -7.125,-0.364632 -3.403125,0.01223 -5.7375,0.05785 -5.1875,0.10138 l 1,0.07916 -1.324995,0.02292 c -1.246467,0.02156 -1.354698,0.04444 -1.826168,0.38597 -0.737365,0.534145 -1.033492,1.087507 -1.051125,1.964207 -0.01217,0.605188 -0.03202,0.668912 -0.112194,0.360246 -0.08831,-0.339994 -0.08234,6.5397 0.006,6.90625 0.02071,0.08594 0.08785,0.15625 0.149197,0.15625 0.06135,0 0.07615,0.05728 0.03288,0.12728 -0.114497,0.185259 0.396065,0.952319 0.879098,1.320746 0.386335,0.294673 0.505399,0.31617 1.6444,0.296915 1.28004,-0.02164 1.636249,0.02294 2.006529,0.251108 0.280893,0.173088 10.155923,0.04468 10.752631,-0.139825 l -5e-6,0 z M 8.2149905,50.373214 c 0.048961,-0.06875 0.1733958,-0.143493 0.2765208,-0.166094 0.2699591,-0.05917 0.6308296,-0.410846 0.5521752,-0.538112 -0.036811,-0.05956 -0.016389,-0.108294 0.045383,-0.108294 0.345831,0 0.4024415,-0.748825 0.4024415,-5.323361 0,-4.498967 -0.010403,-4.706988 -0.2598209,-5.195889 -0.1429014,-0.28011 -0.3679014,-0.537555 -0.5,-0.5721 -0.1320985,-0.03454 -0.2401791,-0.103469 -0.2401791,-0.153165 0,-0.290581 -0.7942094,-0.380485 -3.3612211,-0.380485 -2.6029328,0 -2.7487374,0.01284 -3.268776,0.287842 -0.3720412,0.19674 -0.6354205,0.460119 -0.8321605,0.83216 -0.2855374,0.53996 -0.2878424,0.58154 -0.2878424,5.192498 0,4.610957 0.002305,4.652537 0.2878424,5.192497 0.1986537,0.37566 0.4600913,0.635437 0.84375,0.83839 0.5436585,0.287594 0.6186721,0.293248 3.4043868,0.256593 1.7117698,-0.02252 2.8840038,-0.08736 2.9375,-0.16248 z m 2.1779615,-0.371049 c -0.334097,-0.550566 -0.5264407,-0.704751 -0.5264407,-0.422 0,0.07945 -0.1434876,0.332573 -0.3188614,0.5625 l -0.3188615,0.418049 0.7515519,0 0.7515517,0 -0.33894,-0.558549 z m 36.613664,0.119155 c -0.212185,-0.241666 -0.404258,-0.452604 -0.42683,-0.46875 -0.02257,-0.01615 -0.226242,0.181581 -0.452605,0.439394 l -0.411567,0.46875 0.838397,0 0.838398,0 -0.385793,-0.439394 z m 15.048305,0.14548 c 0.647413,-0.301485 1.497119,-1.132021 1.369465,-1.33857 -0.03995,-0.06463 -0.0097,-0.117516 0.06713,-0.117516 0.07686,0 0.107959,-0.05145 0.0691,-0.114324 -0.03886,-0.06288 6e-6,-0.137877 0.08637,-0.166666 0.121653,-0.04055 0.157028,-0.948763 0.157028,-4.03151 0,-3.082748 -0.03538,-3.990959 -0.157028,-4.03151 -0.08637,-0.02879 -0.125234,-0.103789 -0.08637,-0.166666 0.03886,-0.06288 0.0078,-0.114324 -0.0691,-0.114324 -0.07687,0 -0.107071,-0.05288 -0.06713,-0.117516 0.11105,-0.179683 -0.658753,-0.988527 -1.23354,-1.296098 -0.503601,-0.26948 -0.609231,-0.274462 -6.565931,-0.309742 -3.329754,-0.01972 -6.142254,0.0033 -6.25,0.05109 -0.107747,0.04782 -0.23979,0.07746 -0.293429,0.06585 -0.169282,-0.03663 -0.888323,0.371828 -1.257672,0.714434 -0.195359,0.181214 -0.476609,0.55448 -0.625,0.82948 -0.259849,0.481552 -0.269803,0.642965 -0.269803,4.375 0,4.24514 5e-4,4.248075 0.79552,5.105197 0.358844,0.386855 1.217942,0.877365 1.370985,0.782778 0.05249,-0.03244 0.177122,-0.0073 0.276964,0.05586 0.103695,0.0656 2.727371,0.115135 6.119031,0.115531 l 5.9375,7.5e-4 0.62591,-0.291471 0,-5.8e-5 z m -33.43841,-0.143586 c -0.08559,-0.103125 -0.17083,-0.1875 -0.189432,-0.1875 -0.0186,0 -0.0662,0.08438 -0.105771,0.1875 -0.04982,0.129827 0.0085,0.1875 0.189432,0.1875 0.218168,0 0.235655,-0.031 0.105771,-0.1875 z m -17.075465,-11.53125 0.603719,-0.40625 -1.32687,0 -1.3268693,0 0.2526418,0.46875 c 0.138953,0.257812 0.2862085,0.67551 0.3272345,0.928217 l 0.07459,0.459468 0.395915,-0.521968 c 0.217754,-0.287082 0.66759,-0.70478 0.999636,-0.928217 z m 17.25607,0.375 0.366168,-0.40625 -0.923755,0 -0.923755,0 0.488055,0.499814 c 0.268431,0.274897 0.519345,0.45771 0.557587,0.40625 0.03824,-0.05146 0.234308,-0.276377 0.4357,-0.499814 z m 17.99842,0.15625 0.333698,-0.4375 -0.706173,0 -0.706172,0 0.356061,0.428475 c 0.195834,0.235661 0.363448,0.432536 0.372475,0.4375 0.009,0.005 0.166578,-0.18785 0.350111,-0.428475 z m -27.514955,-1.870106 -0.60157,-0.682608 -0.5,0.48093 c -0.275,0.264511 -0.66875,0.569433 -0.875,0.677603 -0.360657,0.18915 -0.318527,0.196863 1.10157,0.201676 l 1.476569,0.005 -0.601569,-0.682606 0,5e-6 z M 1.5367867,37.651266 c 0.2031632,-0.148557 0.196257,-0.179928 -0.1011088,-0.45929 l -0.3191666,-0.299841 0,0.45929 c 0,0.493535 0.078647,0.549645 0.4202754,0.299841 z m 47.5469623,-0.01782 c 0.467749,-0.124524 1.074635,-0.155016 2.125,-0.10677 l 1.470262,0.06753 0.5625,-0.428835 c 0.309375,-0.235859 0.703125,-0.679333 0.875,-0.985498 l 0.3125,-0.556662 0,-3.875 c 0,-3.732035 -0.01,-3.893448 -0.269802,-4.375 -0.3157,-0.585059 -0.805364,-1.06584 -1.417698,-1.39198 -0.409816,-0.218275 -0.84485,-0.233663 -6.875,-0.243175 -3.540625,-0.0056 -5.959375,0.02612 -5.375,0.07046 l 1.0625,0.08062 -1.25,0.03285 c -0.6875,0.01807 -1.346408,0.0514 -1.464241,0.07406 -0.521655,0.100353 -1.437565,1.016263 -1.537917,1.537918 -0.02267,0.117832 -0.05396,0.579866 -0.06955,1.026741 -0.02798,0.80226 -0.02947,0.805411 -0.117751,0.25 -0.04918,-0.309375 -0.07642,1.040625 -0.06055,3 0.03034,3.744584 0.0376,3.875 0.215718,3.875 0.06135,0 0.07615,0.05728 0.03288,0.12728 -0.116752,0.188907 0.399813,0.955177 0.902266,1.338417 0.293892,0.224163 0.569705,0.326683 0.831901,0.309217 0.303864,-0.02024 0.349995,0.0031 0.204741,0.10364 -0.131892,0.09128 0.505712,0.120465 2.149879,0.0984 1.285558,-0.01725 2.377745,0.009 2.427083,0.05834 0.170695,0.170694 4.569997,0.09753 5.265276,-0.08757 z m 13.876512,-0.07136 c 0.223438,-0.136233 0.40625,-0.332898 0.40625,-0.437033 0,-0.104136 0.06562,-0.189337 0.145834,-0.189337 0.08021,0 0.111011,-0.03482 0.06845,-0.07738 -0.04256,-0.04256 0.0043,-0.159078 0.104166,-0.258929 0.152355,-0.152354 0.181547,-0.944713 0.181547,-4.927599 0,-4.559169 -0.01024,-4.766105 -0.259821,-5.255341 -0.142901,-0.28011 -0.367901,-0.537555 -0.5,-0.5721 -0.132097,-0.03454 -0.240179,-0.103469 -0.240179,-0.153165 0,-0.290581 -0.79421,-0.380485 -3.361221,-0.380485 -2.602932,0 -2.748737,0.01284 -3.268776,0.287842 -0.372041,0.19674 -0.63542,0.460119 -0.83216,0.83216 -0.285474,0.539839 -0.287843,0.582409 -0.287843,5.172693 0,4.44455 0.01041,4.649884 0.262177,5.169957 0.144197,0.297873 0.372672,0.60072 0.507722,0.672997 0.151541,0.0811 1.2595,0.127185 2.894074,0.120371 2.716401,-0.01132 3.142871,0.0092 3.291815,0.1581 0.15064,0.150641 0.469951,0.09212 0.887962,-0.16275 z m -28.574482,-0.0212 c 0.514695,-0.105747 1.108864,-0.499873 1.477666,-0.980172 l 0.335939,-0.4375 -0.07935,-3.875 c -0.06156,-3.006271 -0.04318,-3.982599 0.08197,-4.354946 0.120771,-0.359315 0.126461,-0.547824 0.02264,-0.75 -0.197731,-0.385049 -0.754369,-0.959183 -0.864163,-0.891328 -0.05103,0.03154 -0.126396,-0.03028 -0.167488,-0.137367 -0.04109,-0.107088 -0.131363,-0.159694 -0.200599,-0.116905 -0.06923,0.04279 -0.125883,0.02088 -0.125883,-0.0487 0,-0.328922 -1.119323,-0.386205 -7.125,-0.364632 -3.403125,0.01223 -5.7375,0.05785 -5.1875,0.10138 l 1,0.07916 -1.324995,0.02292 c -1.240798,0.02147 -1.356282,0.04559 -1.817363,0.379593 -0.798627,0.578521 -1.007407,0.980595 -1.048038,2.01833 -0.0188,0.480082 -0.03723,0.516712 -0.125816,0.25 -0.05883,-0.177129 -0.09404,1.280412 -0.08129,3.364692 0.01665,2.721412 0.06129,3.690093 0.17173,3.726825 0.08208,0.0273 0.122446,0.119428 0.08971,0.20473 -0.154836,0.403499 1.565803,2.00281 1.91954,1.784188 0.0569,-0.03517 0.185147,-0.01139 0.284989,0.05284 0.189923,0.122182 12.160121,0.09582 12.763299,-0.0281 z m 2.696641,-0.196081 -0.340909,-0.34091 -0.340908,0.34091 -0.34091,0.340909 0.681818,0 0.681819,0 -0.34091,-0.340909 z m 17.907178,0.122159 c -10e-4,-0.05156 -0.05545,-0.178125 -0.120885,-0.28125 -0.101817,-0.160464 -0.159618,-0.146946 -0.400864,0.09375 l -0.281893,0.28125 0.402778,0 c 0.221527,0 0.401916,-0.04219 0.400864,-0.09375 z m -38.248087,-0.45177 c 0.551135,-0.293545 1.097974,-0.797581 1.314303,-1.211429 0.12776,-0.244411 0.17408,-1.306452 0.197194,-4.521364 0.02777,-3.862078 0.01202,-4.230516 -0.194687,-4.555551 -0.34396,-0.540855 -0.716231,-0.915797 -0.835862,-0.841861 -0.05924,0.03661 -0.141335,-0.02105 -0.182429,-0.128134 -0.04109,-0.107089 -0.125071,-0.163584 -0.186616,-0.125546 -0.06155,0.03804 -0.111903,0.01224 -0.111903,-0.05734 0,-0.328986 -1.118997,-0.386195 -7.1249997,-0.364267 -3.403125,0.01243 -5.709375,0.05788 -5.125,0.101015 l 1.0625,0.07842 -1.25,0.03285 c -0.6875,0.01807 -1.3464086,0.0514 -1.4642414,0.07406 -0.521655,0.100353 -1.4375655,1.016263 -1.5379169,1.537918 -0.022668,0.117832 -0.052922,0.523616 -0.067233,0.901741 -0.024007,0.634324 -0.033142,0.653661 -0.1181087,0.25 -0.050649,-0.240625 -0.095541,1.1375 -0.099759,3.0625 -0.00498,2.273776 0.033517,3.412412 0.1098876,3.25 0.087466,-0.186008 0.099765,-0.130014 0.04805,0.21875 -0.044581,0.30065 -0.020004,0.46875 0.068534,0.46875 0.075923,0 0.1012702,0.0595 0.056328,0.132215 -0.1281279,0.207315 0.517524,1.081524 1.0676335,1.445569 0.274197,0.181455 0.6768337,0.350677 0.8947485,0.37605 0.2179147,0.02537 0.4262946,0.07622 0.4630664,0.112988 0.036772,0.03677 2.8820921,0.05084 6.3229347,0.03127 5.824718,-0.03314 6.286243,-0.05166 6.693576,-0.26861 z m 38.375,-11.395001 c 0,-0.03271 -0.292285,-0.05948 -0.649521,-0.05948 l -0.64952,0 0.421333,0.434705 0.421331,0.434704 0.228189,-0.375225 c 0.125503,-0.206375 0.228188,-0.401992 0.228188,-0.434705 z m -35.75,0.253021 0.424042,-0.4375 -0.77985,0 -0.779849,0 0.349079,0.437496 c 0.191993,0.240623 0.352106,0.437498 0.355807,0.4375 0.0037,3e-6 0.197549,-0.196871 0.430771,-0.437496 z m 18,0 0.424042,-0.4375 -0.924042,0 -0.924041,0 0.424041,0.4375 c 0.233223,0.240625 0.458223,0.4375 0.5,0.4375 0.04178,0 0.266778,-0.196875 0.5,-0.4375 z M 1.5367867,24.845161 C 1.1951585,24.595358 1.1165113,24.651468 1.1165113,25.145003 l 0,0.45929 0.3191666,-0.299842 c 0.2973658,-0.279361 0.304272,-0.310732 0.1011088,-0.45929 z M 63.116511,24.60384 c 0,-0.322635 -0.0069,-0.32565 -0.247052,-0.108294 -0.262268,0.237349 -0.231429,0.440168 0.06693,0.440168 0.111601,0 0.180122,-0.126249 0.180122,-0.331874 z m -16.533333,-0.259792 -0.466667,-0.466668 -0.466666,0.466668 -0.466667,0.466666 0.933333,0 0.933334,0 -0.466667,-0.466666 z M 28.669939,24.154464 c -0.261615,-0.292188 -0.507223,-0.539625 -0.545795,-0.54986 -0.03857,-0.01024 -0.28838,0.228826 -0.555126,0.53125 l -0.484995,0.54986 1.03079,0 1.030788,0 -0.475662,-0.53125 z m 30.696572,0.40625 -1.4375,-0.07513 1.648113,-0.02493 c 1.786274,-0.02702 2.162817,-0.114059 2.711032,-0.626637 0.487919,-0.4562 0.699784,-1.002795 0.722129,-1.863032 l 0.01877,-0.722765 0.09012,0.5625 c 0.04957,0.309375 0.08331,-1.176605 0.07498,-3.302179 -0.01167,-2.980034 -0.05109,-3.876637 -0.172173,-3.916926 -0.08637,-0.02874 -0.125234,-0.103694 -0.08637,-0.166571 0.03886,-0.06288 0.0078,-0.114324 -0.0691,-0.114324 -0.07687,0 -0.107071,-0.05288 -0.06713,-0.117516 0.127654,-0.206549 -0.722052,-1.037085 -1.369465,-1.33857 l -0.62591,-0.291472 -5.875,-5e-4 c -5.679222,-5e-4 -6.8125,0.06376 -6.8125,0.386334 0,0.06958 -0.05288,0.09382 -0.117516,0.05387 -0.179682,-0.11105 -0.988526,0.658753 -1.296097,1.23354 -0.264952,0.495136 -0.273887,0.638253 -0.273887,4.386835 0,3.748581 0.0089,3.891698 0.273887,4.386835 0.307571,0.574786 1.116415,1.34459 1.296097,1.23354 0.06463,-0.03995 0.117516,-0.01775 0.117516,0.04933 0,0.323415 0.916585,0.372481 6.6875,0.357992 3.3,-0.0083 5.353125,-0.04888 4.5625,-0.0902 l 0,-2.4e-5 z m -33.375,-0.29552 c 0.60907,-0.324403 1.105792,-0.810125 1.386448,-1.35575 0.21991,-0.427528 0.238552,-0.772258 0.238552,-4.41123 0,-4.353796 -0.01477,-4.446139 -0.832302,-5.20448 -0.892696,-0.82806 -0.572929,-0.794446 -7.667698,-0.80604 -3.540625,-0.0058 -5.9875,0.02609 -5.4375,0.07083 l 1,0.08135 -1.324995,0.02292 c -1.240798,0.02147 -1.356283,0.04559 -1.817363,0.379593 -0.501955,0.363614 -0.91548,0.888922 -0.986499,1.253166 -0.02173,0.111465 -0.05047,0.483914 -0.06387,0.827664 -0.02169,0.556769 -0.03499,0.584061 -0.121758,0.25 -0.08831,-0.339994 -0.08234,6.5397 0.006,6.90625 0.02071,0.08594 0.08785,0.15625 0.149199,0.15625 0.06135,0 0.07615,0.05728 0.03288,0.12728 -0.126306,0.204367 0.430275,0.989874 0.987741,1.394005 l 0.513668,0.372381 2,-0.02302 c 1.137098,-0.01309 2.161794,0.03348 2.375,0.107937 0.239078,0.08349 1.96077,0.122433 4.75,0.107438 4.002045,-0.02151 4.412295,-0.04338 4.8125,-0.25654 z m 17.769268,0.151845 c 0.516199,-0.107849 1.109514,-0.501873 1.477666,-0.981325 l 0.335939,-0.4375 -0.07935,-3.875 c -0.06156,-3.006271 -0.04318,-3.982599 0.08197,-4.354946 0.120771,-0.359315 0.126461,-0.547824 0.02264,-0.75 -0.197731,-0.385049 -0.754369,-0.959183 -0.864163,-0.891328 -0.05103,0.03154 -0.126396,-0.03028 -0.167488,-0.137367 -0.04109,-0.107088 -0.131363,-0.159694 -0.200599,-0.116905 -0.06923,0.04279 -0.125883,0.02087 -0.125883,-0.0487 0,-0.328922 -1.119323,-0.386205 -7.125,-0.364632 -3.403125,0.01222 -5.7375,0.05785 -5.1875,0.10138 l 1,0.07915 -1.324995,0.02292 c -1.240798,0.02147 -1.356282,0.04559 -1.817363,0.379593 -0.798627,0.578521 -1.007407,0.980595 -1.048038,2.01833 -0.0188,0.480082 -0.03723,0.516712 -0.125816,0.25 -0.05883,-0.177129 -0.09404,1.280412 -0.08129,3.364692 0.01665,2.721412 0.06129,3.690093 0.17173,3.726825 0.08208,0.0273 0.122446,0.119428 0.08971,0.20473 -0.154836,0.403499 1.565803,2.00281 1.91954,1.784188 0.0569,-0.03517 0.185147,-0.01168 0.284989,0.05221 0.191226,0.122356 12.169923,0.09765 12.763299,-0.02632 z M 8.3039417,24.072024 c 0.2062117,-0.117008 0.5005988,-0.434606 0.6541937,-0.705776 0.2754686,-0.486334 0.2792633,-0.557578 0.2792633,-5.243034 0,-4.697911 -0.00309,-4.755455 -0.2817415,-5.247453 C 8.7976865,12.596844 8.4553819,12.254539 8.1764635,12.096568 7.7022032,11.827961 7.5502625,11.81473 4.9174218,11.81277 2.2736727,11.81077 2.1326055,11.823 1.6115142,12.098556 c -0.3720412,0.19674 -0.63542053,0.460119 -0.83216055,0.83216 -0.28553735,0.53996 -0.28784235,0.58154 -0.28784235,5.192498 0,4.610957 0.002305,4.652537 0.28784235,5.192497 0.18980802,0.358933 0.46043555,0.635588 0.79459975,0.812298 0.4861524,0.257084 0.6256548,0.265719 3.4309076,0.212367 2.4529968,-0.04665 2.9845609,-0.08989 3.2990807,-0.268352 z m 1.8426313,-0.256566 c -0.3426016,-0.495314 -0.5300617,-0.625385 -0.5300617,-0.36779 0,0.07532 -0.1163303,0.300325 -0.2585118,0.5 l -0.2585117,0.363046 0.6948237,0 0.6948235,0 -0.342562,-0.495256 z M 28.337865,13.209151 c 0.02748,-0.08243 -0.06458,-0.148437 -0.207014,-0.148437 -0.179763,0 -0.234363,0.05767 -0.182516,0.192782 0.08187,0.213349 0.31238,0.187107 0.38953,-0.04434 z m 18.153646,-0.210937 c 0.132884,-0.160115 0.09637,-0.1875 -0.25,-0.1875 -0.34637,0 -0.382883,0.02738 -0.25,0.1875 0.08559,0.103125 0.198087,0.1875 0.25,0.1875 0.05191,0 0.164414,-0.08438 0.25,-0.1875 z m 16.575522,-0.403646 c -0.127065,-0.127064 -0.231907,0.06424 -0.127653,0.232922 0.07875,0.127428 0.108198,0.127526 0.150538,5e-4 0.02895,-0.08685 0.01865,-0.19189 -0.02288,-0.233427 l 0,5e-6 z M 11.17313,12.165649 c 0.17511,-0.07978 0.318381,-0.195605 0.318381,-0.257376 0,-0.06177 0.05625,-0.07755 0.125,-0.03506 0.06875,0.04249 0.125,0.01945 0.125,-0.0512 0,-0.07065 0.08438,-0.09608 0.1875,-0.0565 0.103125,0.03957 0.1875,0.02174 0.1875,-0.03964 0,-0.158547 0.290464,-0.175114 2.768382,-0.157907 1.267383,0.0088 2.304422,-0.03796 2.4375,-0.109901 0.12739,-0.06887 0.338153,-0.307273 0.468362,-0.529783 0.140965,-0.240889 0.170299,-0.363499 0.07251,-0.303061 -0.120089,0.07422 -0.141847,0.04316 -0.08094,-0.115557 0.04581,-0.119383 0.02367,-0.328467 -0.0492,-0.464631 -0.08567,-0.1600758 -0.125963,-1.4932114 -0.11401,-3.7721944 0.02123,-4.0485281 0.0272,-4.2121246 0.153652,-4.2121246 0.189687,0 0.07676,-0.44681 -0.191995,-0.7596746 C 17.207243,0.86621412 16.51996,0.40337775 16.37804,0.4910885 16.314694,0.53023925 16.23931,0.4916135 16.210521,0.40524287 16.169396,0.28186725 14.753981,0.248214 9.6060947,0.248214 3.1274992,0.248214 3.0484033,0.251246 2.5540113,0.51851037 1.9105278,0.86637287 1.3001217,1.506119 1.0825363,2.060714 c -0.26651028,0.6792977 -0.20666013,8.038801 0.069721,8.573263 0.3306561,0.639419 0.4444746,0.682714 1.4026242,0.533544 0.520896,-0.0811 1.7282244,-0.105465 3.0551814,-0.06167 2.4511362,0.0809 2.5064485,0.08556 2.5064485,0.211115 0,0.07439 0.316151,0.201285 0.5700891,0.228816 0.035398,0.0038 0.2078595,0.177516 0.3832474,0.385954 0.2883037,0.342629 0.3891866,0.378975 1.0518931,0.378975 0.403154,0 0.876279,-0.06528 1.051389,-0.145065 z m 18.5,-0.125 c 0.17511,-0.07978 0.318381,-0.19052 0.318381,-0.246076 0,-0.05556 0.08438,-0.06864 0.1875,-0.02906 0.103125,0.03957 0.1875,0.02174 0.1875,-0.03964 0,-0.154092 0.278934,-0.171743 2.514194,-0.159102 l 1.951694,0.01104 0.457829,-0.53487 c 0.251806,-0.294178 0.431391,-0.603765 0.399078,-0.687971 -0.03231,-0.0842 0.0084,-0.175442 0.09048,-0.202749 0.110265,-0.03669 0.158762,-1.0555373 0.185745,-3.9022908 L 36.002046,2.3972846 35.681193,1.7414815 C 35.337786,1.0395835 34.728234,0.491418 34.002786,0.232104 33.430061,0.02738089 21.052814,-0.01460318 20.927751,0.187753 c -0.04318,0.0698714 -0.13256,0.0936371 -0.198615,0.0528127 -0.31116,-0.19230731 -1.640547,0.9027813 -1.761383,1.4509474 -0.02131,0.096662 -0.107569,0.2499327 -0.19169,0.3406025 -0.114225,0.1231149 -0.145874,1.01689 -0.125,3.5300889 0.01537,1.8508794 -0.01224,3.2686594 -0.06137,3.1506223 -0.04913,-0.1180372 -0.05492,0.094762 -0.01287,0.4728871 0.04205,0.378125 0.124775,0.7063669 0.183845,0.7294262 0.05907,0.02306 0.07632,0.09221 0.03834,0.1536669 -0.09741,0.157608 0.15552,0.608437 0.61375,1.09397 l 0.391251,0.414563 2.75,-0.01474 c 2.284222,-0.01224 3.113774,0.0152 3.40625,0.112697 0.01719,0.0057 0.06715,0.0056 0.111025,-2.5e-4 0.04387,-0.0059 0.114188,0.04112 0.15625,0.104432 0.196784,0.296196 0.669464,0.398919 1.851844,0.402443 0.710276,0.0021 1.416436,-0.06047 1.59375,-0.141264 l 0,-1e-5 z m 33.040568,-0.04952 c 0.152797,-0.107023 0.277813,-0.275773 0.277813,-0.375 0,-0.09923 0.06562,-0.180412 0.145834,-0.180412 0.08021,0 0.111011,-0.03482 0.06845,-0.07738 -0.04256,-0.04256 0.0043,-0.159077 0.104166,-0.258929 0.152355,-0.152354 0.181547,-0.944712 0.181547,-4.9275984 0,-4.5591687 -0.01023,-4.7661051 -0.259821,-5.25534198 -0.142901,-0.28011 -0.367901,-0.53755462 -0.5,-0.57209925 -0.132097,-0.0345445 -0.240179,-0.10346875 -0.240179,-0.15316487 0,-0.29058213 -0.79421,-0.3804855 -3.361221,-0.3804855 -2.602932,0 -2.748737,0.0128393 -3.268776,0.28784237 -0.372041,0.19674 -0.63542,0.46011938 -0.83216,0.8321605 C 54.74384,1.4706309 54.74151,1.512587 54.741702,6.1116285 c 1.25e-4,4.1638385 0.02248,4.6811975 0.21875,5.0740895 l 0.218556,0.4375 2.75,0.01855 c 2.262887,0.01527 3.151249,0.0556 3.53125,0.160332 0.01719,0.0047 0.06138,0.0066 0.09821,0.0041 0.03683,-0.0024 0.153349,0.08192 0.258929,0.1875 0.244712,0.244712 0.544425,0.243835 0.896294,-0.0026 z M 48.655184,11.757645 c 0.609574,-0.12754 1.304974,-0.157882 2.450632,-0.10693 1.518272,0.06752 1.613177,0.05752 1.867625,-0.196931 0.147439,-0.147438 0.26807,-0.23014 0.26807,-0.183781 0,0.04636 0.138892,-0.04619 0.308648,-0.20567 0.169756,-0.159477 0.282875,-0.331659 0.251376,-0.382626 -0.0315,-0.05097 0.02649,-0.162177 0.128853,-0.247135 0.158483,-0.13153 0.186123,-0.8184714 0.186123,-4.62579 0,-3.9397625 -0.02323,-4.4802359 -0.195422,-4.5463115 -0.107483,-0.041245 -0.165733,-0.1230304 -0.129445,-0.1817455 0.08616,-0.13940938 -0.495278,-0.67896525 -1.050133,-0.97449075 -0.409982,-0.21836365 -0.84634,-0.23365775 -6.9375,-0.24315573 -3.575,-0.005574 -6.021875,0.0261335 -5.4375,0.07046212 l 1.0625,0.08059757 -1.25,0.0328518 C 39.491511,0.0650585 38.837813,0.0976235 38.726348,0.1193565 38.363135,0.1901741 37.837186,0.60336075 37.476559,1.1011919 l -0.353291,0.4877043 0,4.2843178 0,4.284318 0.353291,0.487704 c 0.666864,0.920578 0.72555,0.935784 3.556101,0.9214 2.977248,-0.01513 2.95198,-0.01667 3.267915,0.199989 0.339356,0.232725 3.22785,0.226769 4.354609,-0.009 l 0,-5e-6 z M 36.79322,11.249287 c -0.218599,-0.333624 -0.348867,-0.317584 -0.555435,0.06839 -0.1175,0.219553 -0.08709,0.243039 0.31471,0.243039 l 0.44478,0 -0.204055,-0.311427 z m 0.166803,-7.0872603 c -0.02114,-0.983847 -0.0385,-0.2138127 -0.03856,1.7111873 -6.4e-5,1.925 0.01724,2.7299657 0.03844,1.7888127 0.02121,-0.941153 0.02126,-2.516153 1.15e-4,-3.5 z"
       id="path3399"
       inkscape:connector-curvature="0"
       transform="translate(0,988.36216)" />
    <path
       style="fill:#d3bc5f;fill-opacity:1;stroke:#000000;stroke-width:0.125;stroke-linecap:round;stroke-miterlimit:4;stroke-dasharray:none;stroke-opacity:1"
       d=""
       id="path3401"
       inkscape:connector-curvature="0"
       transform="translate(0,988.36216)" />
    <path
       style="fill:#d3bc5f;fill-opacity:1;stroke:#000000;stroke-width:0.125;stroke-linecap:round;stroke-miterlimit:4;stroke-dasharray:none;stroke-opacity:1"
       d=""
       id="path3403"
       inkscape:connector-curvature="0"
       transform="translate(0,988.36216)" />
    <path
       style="fill:#d3bc5f;fill-opacity:1;stroke:#000000;stroke-width:0.125;stroke-linecap:round;stroke-miterlimit:4;stroke-dasharray:none;stroke-opacity:1"
       d="m 18.063825,37.288323 0.566727,-0.522392 0.522392,0.522392 0.522391,0.522391 -1.089119,0 -1.089119,0 0.566728,-0.522391 z"
       id="path3405"
       inkscape:connector-curvature="0"
       transform="translate(0,988.36216)" />
    <path
       style="fill:#d3bc5f;fill-opacity:1;stroke:#000000;stroke-width:0.125;stroke-linecap:round;stroke-miterlimit:4;stroke-dasharray:none;stroke-opacity:1"
       d="M 10.003007,39.007259 C 9.8606937,38.668483 9.7649891,38.37057 9.7903301,38.345229 c 0.025341,-0.02534 0.4325359,-0.02941 0.9048779,-0.009 l 0.858803,0.03703 -0.646126,0.625 -0.646127,0.625 -0.258751,-0.615955 z"
       id="path3407"
       inkscape:connector-curvature="0"
       transform="translate(0,988.36216)" />
    <path
       style="fill:#d3bc5f;fill-opacity:1;stroke:#000000;stroke-width:0.125;stroke-linecap:round;stroke-miterlimit:4;stroke-dasharray:none;stroke-opacity:1"
       d="m 27.712665,24.156868 0.403846,-0.403846 0.403846,0.403846 0.403847,0.403846 -0.807693,0 -0.807692,0 0.403846,-0.403846 z"
       id="path3409"
       inkscape:connector-curvature="0"
       transform="translate(0,988.36216)" />
    <path
       style="fill:#d3bc5f;fill-opacity:1;stroke:#000000;stroke-width:0.04419417;stroke-linecap:round;stroke-miterlimit:4;stroke-dasharray:none;stroke-opacity:1"
       d="m 9.4045268,24.023097 c 0.070762,-0.103304 0.1736189,-0.276386 0.2285713,-0.384627 l 0.099913,-0.196801 0.1160567,0.13334 c 0.1144433,0.131486 0.4114822,0.538271 0.4401472,0.602767 0.0081,0.01823 -0.216586,0.03315 -0.4993075,0.03315 l -0.5140389,0 0.1286578,-0.187825 z"
       id="path3411"
       inkscape:connector-curvature="0"
       transform="translate(0,988.36216)" />
    <path
       style="fill:#d3bc5f;fill-opacity:1;stroke:#000000;stroke-width:0.04419417;stroke-linecap:round;stroke-miterlimit:4;stroke-dasharray:none;stroke-opacity:1"
       d="m 18.67568,25.868203 -0.249474,-0.331456 0.585518,0 0.585519,0 -0.329245,0.331456 c -0.181084,0.182301 -0.332304,0.331457 -0.336044,0.331457 -0.0037,0 -0.119063,-0.149156 -0.256274,-0.331457 z"
       id="path3413"
       inkscape:connector-curvature="0"
       transform="translate(0,988.36216)" />
    <path
       style="fill:#d3bc5f;fill-opacity:1;stroke:#000000;stroke-width:0.04419417;stroke-linecap:round;stroke-miterlimit:4;stroke-dasharray:none;stroke-opacity:1"
       d="m 1.1925814,25.173913 c 0,-0.379547 0.018147,-0.403552 0.2252133,-0.297914 0.094894,0.04841 0.1725342,0.103363 0.1725342,0.122115 0,0.01875 -0.089493,0.121925 -0.1988737,0.229274 l -0.1988738,0.19518 0,-0.248655 z"
       id="path3415"
       inkscape:connector-curvature="0"
       transform="translate(0,988.36216)" />
    <path
       style="fill:#d3bc5f;fill-opacity:1;stroke:#000000;stroke-width:0.04419417;stroke-linecap:round;stroke-miterlimit:4;stroke-dasharray:none;stroke-opacity:1"
       d="m 27.885862,39.014164 -0.37565,-0.351108 0.724203,-3.19e-4 0.724203,-3.2e-4 -0.193919,0.209922 c -0.106655,0.115457 -0.247304,0.274556 -0.312553,0.353553 -0.06525,0.079 -0.134835,0.142675 -0.154634,0.141506 -0.0198,-0.0012 -0.205042,-0.160125 -0.41165,-0.353234 z"
       id="path3417"
       inkscape:connector-curvature="0"
       transform="translate(0,988.36216)" />
    <path
       style="fill:#d3bc5f;fill-opacity:1;stroke:#000000;stroke-width:0.04419417;stroke-linecap:round;stroke-miterlimit:4;stroke-dasharray:none;stroke-opacity:1"
       d="m 9.5136414,50.316163 c 0.1971934,-0.258534 0.3732596,-0.536241 0.4047124,-0.638348 0.051741,-0.16797 0.060951,-0.159694 0.3565732,0.320407 0.07483,0.121534 0.17227,0.275661 0.216524,0.342505 l 0.08046,0.121534 -0.5848526,0 -0.5848524,0 0.1114344,-0.146098 z"
       id="path3419"
       inkscape:connector-curvature="0"
       transform="translate(0,988.36216)" />
    <path
       style="fill:#d3bc5f;fill-opacity:1;stroke:#000000;stroke-width:0.04419417;stroke-linecap:round;stroke-miterlimit:4;stroke-dasharray:none;stroke-opacity:1"
       d="m 35.627688,52.382635 c -0.05032,-0.09609 -0.171994,-0.294028 -0.270378,-0.439869 l -0.17888,-0.265165 0.602436,-0.01234 c 0.33134,-0.0068 0.610871,-0.0039 0.62118,0.0064 0.01792,0.01792 -0.322202,0.468905 -0.566804,0.751555 l -0.116056,0.13411 -0.0915,-0.174704 z"
       id="path3421"
       inkscape:connector-curvature="0"
       transform="translate(0,988.36216)" />
    <path
       style="fill:#d3bc5f;fill-opacity:1;stroke:#000000;stroke-width:0.04419417;stroke-linecap:round;stroke-miterlimit:4;stroke-dasharray:none;stroke-opacity:1"
       d="m 1.1925814,51.150885 c 0,-0.381394 0.012568,-0.392417 0.2903748,-0.2547 0.1314774,0.06518 0.2384989,0.128447 0.2378256,0.1406 -0.00145,0.02622 -0.4675695,0.353554 -0.5034549,0.353554 -0.01361,0 -0.024746,-0.107754 -0.024746,-0.239454 z"
       id="path3423"
       inkscape:connector-curvature="0"
       transform="translate(0,988.36216)" />
    <path
       style="fill:#d3bc5f;fill-opacity:1;stroke:#000000;stroke-width:0.04419417;stroke-linecap:round;stroke-miterlimit:4;stroke-dasharray:none;stroke-opacity:1"
       d="m 36.489913,25.870907 -0.358725,-0.352887 0.728167,-6.66e-4 0.728168,-6.67e-4 -0.35148,0.353553 c -0.193314,0.194455 -0.359563,0.353554 -0.369442,0.353554 -0.0099,0 -0.179389,-0.158799 -0.376688,-0.352887 z"
       id="path3425"
       inkscape:connector-curvature="0"
       transform="translate(0,988.36216)" />
    <path
       style="fill:#d3bc5f;fill-opacity:1;stroke:#000000;stroke-width:0.04419417;stroke-linecap:round;stroke-miterlimit:4;stroke-dasharray:none;stroke-opacity:1"
       d="m 45.753548,24.365636 0.36085,-0.355555 0.355555,0.355555 0.355556,0.355556 -0.716405,0 -0.716405,0 0.360849,-0.355556 z"
       id="path3427"
       inkscape:connector-curvature="0"
       transform="translate(0,988.36216)" />
    <path
       style="fill:#d3bc5f;fill-opacity:1;stroke:#000000;stroke-width:0.04419417;stroke-linecap:round;stroke-miterlimit:4;stroke-dasharray:none;stroke-opacity:1"
       d="m 54.345971,25.976973 -0.30035,-0.327703 0.494371,0 0.494371,0 -0.08049,0.121533 c -0.04427,0.06684 -0.131581,0.214311 -0.194021,0.327704 l -0.113528,0.206169 -0.300349,-0.327703 z"
       id="path3429"
       inkscape:connector-curvature="0"
       transform="translate(0,988.36216)" />
    <path
       style="fill:#d3bc5f;fill-opacity:1;stroke:#000000;stroke-width:0.04419417;stroke-linecap:round;stroke-miterlimit:4;stroke-dasharray:none;stroke-opacity:1"
       d="m 36.286033,11.429794 c 3.92e-4,-0.07862 0.180927,-0.320408 0.239244,-0.320408 0.05577,0 0.159199,0.116793 0.264186,0.298311 0.02408,0.04163 -0.03402,0.05524 -0.235822,0.05524 -0.147275,0 -0.267699,-0.01492 -0.267608,-0.03315 z"
       id="path3431"
       inkscape:connector-curvature="0"
       transform="translate(0,988.36216)" />
    <path
       style="fill:#d3bc5f;fill-opacity:1;stroke:#000000;stroke-width:0.04419417;stroke-linecap:round;stroke-miterlimit:4;stroke-dasharray:none;stroke-opacity:1"
       d="m 46.022397,13.076579 c -0.08477,-0.08477 -0.145819,-0.179235 -0.135665,-0.209922 0.0122,-0.03688 0.133363,-0.06017 0.35742,-0.0687 0.31187,-0.01188 0.338959,-0.006 0.338959,0.07394 0,0.102474 -0.242381,0.358812 -0.339276,0.358812 -0.03702,0 -0.136668,-0.06936 -0.221438,-0.154128 z m 0.297441,0.02053 c 0.04646,-0.02486 0.105513,-0.08453 0.131232,-0.132582 0.04425,-0.08269 0.032,-0.08738 -0.228226,-0.08738 l -0.274989,0 0.127023,0.132583 c 0.14497,0.151316 0.133278,0.147146 0.24496,0.08737 z"
       id="path3433"
       inkscape:connector-curvature="0"
       transform="translate(0,988.36216)" />
    <path
       style="fill:#d3bc5f;fill-opacity:1;stroke:#000000;stroke-width:0.04419417;stroke-linecap:round;stroke-miterlimit:4;stroke-dasharray:none;stroke-opacity:1"
       d="m 46.172531,39.084298 -0.252731,-0.309359 0.510628,0 c 0.407241,0 0.503472,0.01161 0.475286,0.05736 -0.08719,0.141506 -0.424526,0.56136 -0.451032,0.56136 -0.01618,0 -0.143149,-0.139212 -0.282151,-0.30936 z"
       id="path3435"
       inkscape:connector-curvature="0"
       transform="translate(0,988.36216)" />
    <path
       style="fill:#d3bc5f;fill-opacity:1;stroke:#000000;stroke-width:0.04419417;stroke-linecap:round;stroke-miterlimit:4;stroke-dasharray:none;stroke-opacity:1"
       d="m 36.490624,37.382823 c 0.115417,-0.133688 0.221651,-0.243068 0.236076,-0.243068 0.01442,0 0.134248,0.10938 0.266275,0.243068 l 0.240048,0.243068 -0.476124,0 -0.476125,0 0.20985,-0.243068 z"
       id="path3437"
       inkscape:connector-curvature="0"
       transform="translate(0,988.36216)" />
    <path
       style="fill:#d3bc5f;fill-opacity:1;stroke:#000000;stroke-width:0.04419417;stroke-linecap:round;stroke-miterlimit:4;stroke-dasharray:none;stroke-opacity:1"
       d="m 54.383382,37.316531 c 0.3199,-0.323272 0.423924,-0.340275 0.551529,-0.09015 0.166564,0.326493 0.131503,0.355314 -0.432226,0.355314 l -0.381701,0 0.262398,-0.265165 z m 0.552427,0.136164 c 0,-0.07333 -0.15364,-0.312375 -0.200953,-0.312661 -0.02545,-1.54e-4 -0.123951,0.07927 -0.218891,0.176497 l -0.172618,0.176777 0.296231,0 c 0.162927,0 0.296231,-0.01828 0.296231,-0.04061 z"
       id="path3439"
       inkscape:connector-curvature="0"
       transform="translate(0,988.36216)" />
    <path
       style="fill:#d3bc5f;fill-opacity:1;stroke:#000000;stroke-width:0.04419417;stroke-linecap:round;stroke-miterlimit:4;stroke-dasharray:none;stroke-opacity:1"
       d="m 46.19851,50.14389 c 0.157565,-0.188377 0.31472,-0.342504 0.349233,-0.342504 0.03451,0 0.197174,0.154127 0.361467,0.342504 l 0.298715,0.342505 -0.647947,0 -0.647948,0 0.28648,-0.342505 z"
       id="path3441"
       inkscape:connector-curvature="0"
       transform="translate(0,988.36216)" />
    <path
       style="fill:#d3bc5f;fill-opacity:1;stroke:#000000;stroke-width:0.04419417;stroke-linecap:round;stroke-miterlimit:4;stroke-dasharray:none;stroke-opacity:1"
       d="m 54.144694,52.445 c -0.07222,-0.158499 -0.278989,-0.425725 -0.553212,-0.714954 l -0.224566,-0.236854 0.652827,0.02053 c 0.359055,0.01129 0.662026,0.02973 0.673269,0.04097 0.01779,0.01779 -0.424509,0.939566 -0.475128,0.990185 -0.01046,0.01046 -0.04339,-0.03448 -0.07319,-0.09988 z"
       id="path3443"
       inkscape:connector-curvature="0"
       transform="translate(0,988.36216)" />
    <path
       style="fill:#d3bc5f;fill-opacity:1;stroke:#000000;stroke-width:0.04419417;stroke-linecap:round;stroke-miterlimit:4;stroke-dasharray:none;stroke-opacity:1"
       d="m 53.875149,63.052836 c 0,-0.04644 0.307824,-0.583654 0.349021,-0.609116 0.02063,-0.01275 0.08252,0.100728 0.137524,0.252174 0.05501,0.151445 0.109377,0.300215 0.120822,0.330598 0.01543,0.04096 -0.06037,0.05524 -0.293279,0.05524 -0.172748,0 -0.314088,-0.013 -0.314088,-0.0289 z"
       id="path3445"
       inkscape:connector-curvature="0"
       transform="translate(0,988.36216)" />
    <path
       style="fill:#d3bc5f;fill-opacity:1;stroke:#000000;stroke-width:0.04419417;stroke-linecap:round;stroke-miterlimit:4;stroke-dasharray:none;stroke-opacity:1"
       d="m 35.004237,63.031075 c 0,-0.02786 0.08917,-0.145989 0.198155,-0.262503 0.108985,-0.116514 0.241883,-0.30185 0.29533,-0.411858 l 0.09717,-0.200015 0.140164,0.208401 c 0.07709,0.114621 0.204626,0.322754 0.283413,0.462518 l 0.14325,0.254117 -0.578743,0 c -0.405607,0 -0.578743,-0.01516 -0.578743,-0.05066 z"
       id="path3447"
       inkscape:connector-curvature="0"
       transform="translate(0,988.36216)" />
    <path
       style="fill:#d3bc5f;fill-opacity:1;stroke:#000000;stroke-width:0.04419417;stroke-linecap:round;stroke-miterlimit:4;stroke-dasharray:none;stroke-opacity:1"
       d="m 54.577975,37.309812 0.150398,-0.13671 0.08064,0.10486 c 0.04435,0.05767 0.08108,0.119776 0.08162,0.138006 5.41e-4,0.01823 -0.103426,0.03256 -0.231036,0.03185 l -0.23202,-0.0013 0.150399,-0.136711 z"
       id="path3449"
       inkscape:connector-curvature="0"
       transform="translate(0,988.36216)" />
    <path
       style="fill:#d3bc5f;fill-opacity:1;stroke:#000000;stroke-width:0.04419417;stroke-linecap:round;stroke-miterlimit:4;stroke-dasharray:none;stroke-opacity:1"
       d="m 28.312801,50.28519 c -0.05879,-0.05879 -0.06036,-0.08888 -0.01097,-0.209923 0.03171,-0.07771 0.08915,-0.147372 0.127642,-0.154795 0.08934,-0.01723 0.31744,0.27785 0.283384,0.366598 -0.03413,0.08894 -0.31053,0.08764 -0.400055,-0.0019 z m 0.287249,-0.10074 c -0.02383,-0.04454 -0.07113,-0.104043 -0.105104,-0.132237 -0.04911,-0.04076 -0.07164,-0.0296 -0.109942,0.05447 -0.05853,0.128466 -0.03343,0.158743 0.13161,0.158743 0.109208,0 0.120768,-0.01122 0.08344,-0.08097 z"
       id="path3451"
       inkscape:connector-curvature="0"
       transform="translate(0,988.36216)" />
    <path
       style="fill:#d3bc5f;fill-opacity:1;stroke:#000000;stroke-width:0.04419417;stroke-linecap:round;stroke-miterlimit:4;stroke-dasharray:none;stroke-opacity:1"
       d=""
       id="path3453"
       inkscape:connector-curvature="0"
       transform="translate(0,988.36216)" />
    <path
       style="fill:#d3bc5f;fill-opacity:1;stroke:#000000;stroke-width:0.04419417;stroke-linecap:round;stroke-miterlimit:4;stroke-dasharray:none;stroke-opacity:1"
       d=""
       id="path3455"
       inkscape:connector-curvature="0"
       transform="translate(0,988.36216)" />
    <path
       style="fill:#d3bc5f;fill-opacity:1;stroke:#000000;stroke-width:0.04419417;stroke-linecap:round;stroke-miterlimit:4;stroke-dasharray:none;stroke-opacity:1"
       d="m 46.108631,12.889635 c 0.06718,-0.01016 0.166615,-0.0099 0.220971,6.03e-4 0.05436,0.01049 -6.08e-4,0.0188 -0.122142,0.01847 -0.121534,-3.32e-4 -0.166007,-0.0089 -0.09883,-0.01907 z"
       id="path3457"
       inkscape:connector-curvature="0"
       transform="translate(0,988.36216)" />
  </g>
</svg>
